<svg width="317" height="330" viewBox="0 0 317 330" fill="none" xmlns="http://www.w3.org/2000/svg">
<g opacity="0.4" filter="url(#filter0_f_302_189)">
<circle cx="158.254" cy="170.843" r="94.4653" fill="url(#paint0_linear_302_189)"/>
</g>
<mask id="path-2-inside-1_302_189" fill="white">
<path d="M217.937 158.254C217.937 191.063 191.34 217.66 158.531 217.66C125.721 217.66 99.1245 191.063 99.1245 158.254C99.1245 125.445 125.721 98.8478 158.531 98.8478C191.34 98.8478 217.937 125.445 217.937 158.254ZM111.506 158.254C111.506 184.225 132.56 205.278 158.531 205.278C184.501 205.278 205.555 184.225 205.555 158.254C205.555 132.283 184.501 111.23 158.531 111.23C132.56 111.23 111.506 132.283 111.506 158.254Z"/>
</mask>
<g filter="url(#filter1_i_302_189)">
<path d="M217.937 158.254C217.937 191.063 191.34 217.66 158.531 217.66C125.721 217.66 99.1245 191.063 99.1245 158.254C99.1245 125.445 125.721 98.8478 158.531 98.8478C191.34 98.8478 217.937 125.445 217.937 158.254ZM111.506 158.254C111.506 184.225 132.56 205.278 158.531 205.278C184.501 205.278 205.555 184.225 205.555 158.254C205.555 132.283 184.501 111.23 158.531 111.23C132.56 111.23 111.506 132.283 111.506 158.254Z" fill="white"/>
</g>
<path d="M217.937 158.254C217.937 191.063 191.34 217.66 158.531 217.66C125.721 217.66 99.1245 191.063 99.1245 158.254C99.1245 125.445 125.721 98.8478 158.531 98.8478C191.34 98.8478 217.937 125.445 217.937 158.254ZM111.506 158.254C111.506 184.225 132.56 205.278 158.531 205.278C184.501 205.278 205.555 184.225 205.555 158.254C205.555 132.283 184.501 111.23 158.531 111.23C132.56 111.23 111.506 132.283 111.506 158.254Z" stroke="url(#paint1_linear_302_189)" stroke-width="0.194774" mask="url(#path-2-inside-1_302_189)"/>
<g opacity="0.23" filter="url(#filter2_f_302_189)">
<circle cx="158.53" cy="158.254" r="94.4653" fill="url(#paint2_linear_302_189)"/>
</g>
<g filter="url(#filter3_d_302_189)">
<mask id="path-4-inside-2_302_189" fill="white">
<path d="M232.544 158.254C232.544 199.131 199.407 232.268 158.53 232.268C117.653 232.268 84.5161 199.131 84.5161 158.254C84.5161 117.377 117.653 84.2399 158.53 84.2399C199.407 84.2399 232.544 117.377 232.544 158.254ZM99.9426 158.254C99.9426 190.611 126.173 216.841 158.53 216.841C190.887 216.841 217.118 190.611 217.118 158.254C217.118 125.897 190.887 99.6664 158.53 99.6664C126.173 99.6664 99.9426 125.897 99.9426 158.254Z"/>
</mask>
<path d="M232.544 158.254C232.544 199.131 199.407 232.268 158.53 232.268C117.653 232.268 84.5161 199.131 84.5161 158.254C84.5161 117.377 117.653 84.2399 158.53 84.2399C199.407 84.2399 232.544 117.377 232.544 158.254ZM99.9426 158.254C99.9426 190.611 126.173 216.841 158.53 216.841C190.887 216.841 217.118 190.611 217.118 158.254C217.118 125.897 190.887 99.6664 158.53 99.6664C126.173 99.6664 99.9426 125.897 99.9426 158.254Z" fill="white"/>
<path d="M232.544 158.254C232.544 199.131 199.407 232.268 158.53 232.268C117.653 232.268 84.5161 199.131 84.5161 158.254C84.5161 117.377 117.653 84.2399 158.53 84.2399C199.407 84.2399 232.544 117.377 232.544 158.254ZM99.9426 158.254C99.9426 190.611 126.173 216.841 158.53 216.841C190.887 216.841 217.118 190.611 217.118 158.254C217.118 125.897 190.887 99.6664 158.53 99.6664C126.173 99.6664 99.9426 125.897 99.9426 158.254Z" stroke="url(#paint3_linear_302_189)" stroke-width="0.973869" mask="url(#path-4-inside-2_302_189)"/>
</g>
<g filter="url(#filter4_d_302_189)">
<path d="M148.907 168.646H145.202L152.555 148.287H156.204L163.556 168.646H159.796L158.153 163.939H150.55L148.907 168.646ZM153.92 154.358L151.608 160.931H157.123L154.783 154.358C154.616 153.829 154.421 153.216 154.365 152.799C154.282 153.188 154.115 153.801 153.92 154.358ZM167.307 152.13C166.137 152.13 165.218 151.211 165.218 150.069C165.218 148.927 166.137 148.036 167.307 148.036C168.421 148.036 169.34 148.927 169.34 150.069C169.34 151.211 168.421 152.13 167.307 152.13ZM165.608 168.646V154.887H169.006V168.646H165.608Z" fill="white"/>
</g>
<g filter="url(#filter5_d_302_189)">
<path d="M172.065 136.256L173.145 139.54L176.065 140.756L173.145 141.971L172.065 145.256L170.985 141.971L168.065 140.756L170.985 139.54L172.065 136.256Z" fill="white"/>
</g>
<g filter="url(#filter6_d_302_189)">
<path d="M177.065 142.256L177.605 144.081L179.065 144.756L177.605 145.431L177.065 147.256L176.525 145.431L175.065 144.756L176.525 144.081L177.065 142.256Z" fill="white"/>
</g>
<defs>
<filter id="filter0_f_302_189" x="0.000133514" y="12.5889" width="316.508" height="316.508" filterUnits="userSpaceOnUse" color-interpolation-filters="sRGB">
<feFlood flood-opacity="0" result="BackgroundImageFix"/>
<feBlend mode="normal" in="SourceGraphic" in2="BackgroundImageFix" result="shape"/>
<feGaussianBlur stdDeviation="31.8942" result="effect1_foregroundBlur_302_189"/>
</filter>
<filter id="filter1_i_302_189" x="99.1245" y="98.8478" width="118.812" height="118.812" filterUnits="userSpaceOnUse" color-interpolation-filters="sRGB">
<feFlood flood-opacity="0" result="BackgroundImageFix"/>
<feBlend mode="normal" in="SourceGraphic" in2="BackgroundImageFix" result="shape"/>
<feColorMatrix in="SourceAlpha" type="matrix" values="0 0 0 0 0 0 0 0 0 0 0 0 0 0 0 0 0 0 127 0" result="hardAlpha"/>
<feOffset/>
<feGaussianBlur stdDeviation="1.4608"/>
<feComposite in2="hardAlpha" operator="arithmetic" k2="-1" k3="1"/>
<feColorMatrix type="matrix" values="0 0 0 0 0 0 0 0 0 0 0 0 0 0 0 0 0 0 0.54 0"/>
<feBlend mode="normal" in2="shape" result="effect1_innerShadow_302_189"/>
</filter>
<filter id="filter2_f_302_189" x="0.276501" y="1.14441e-05" width="316.508" height="316.508" filterUnits="userSpaceOnUse" color-interpolation-filters="sRGB">
<feFlood flood-opacity="0" result="BackgroundImageFix"/>
<feBlend mode="normal" in="SourceGraphic" in2="BackgroundImageFix" result="shape"/>
<feGaussianBlur stdDeviation="31.8942" result="effect1_foregroundBlur_302_189"/>
</filter>
<filter id="filter3_d_302_189" x="80.6206" y="80.3444" width="155.819" height="155.819" filterUnits="userSpaceOnUse" color-interpolation-filters="sRGB">
<feFlood flood-opacity="0" result="BackgroundImageFix"/>
<feColorMatrix in="SourceAlpha" type="matrix" values="0 0 0 0 0 0 0 0 0 0 0 0 0 0 0 0 0 0 127 0" result="hardAlpha"/>
<feOffset/>
<feGaussianBlur stdDeviation="1.94774"/>
<feComposite in2="hardAlpha" operator="out"/>
<feColorMatrix type="matrix" values="0 0 0 0 1 0 0 0 0 1 0 0 0 0 1 0 0 0 1 0"/>
<feBlend mode="normal" in2="BackgroundImageFix" result="effect1_dropShadow_302_189"/>
<feBlend mode="normal" in="SourceGraphic" in2="effect1_dropShadow_302_189" result="shape"/>
</filter>
<filter id="filter4_d_302_189" x="141.307" y="144.141" width="31.9286" height="28.4008" filterUnits="userSpaceOnUse" color-interpolation-filters="sRGB">
<feFlood flood-opacity="0" result="BackgroundImageFix"/>
<feColorMatrix in="SourceAlpha" type="matrix" values="0 0 0 0 0 0 0 0 0 0 0 0 0 0 0 0 0 0 127 0" result="hardAlpha"/>
<feOffset/>
<feGaussianBlur stdDeviation="1.94774"/>
<feComposite in2="hardAlpha" operator="out"/>
<feColorMatrix type="matrix" values="0 0 0 0 1 0 0 0 0 1 0 0 0 0 1 0 0 0 1 0"/>
<feBlend mode="normal" in2="BackgroundImageFix" result="effect1_dropShadow_302_189"/>
<feBlend mode="normal" in="SourceGraphic" in2="effect1_dropShadow_302_189" result="shape"/>
</filter>
<filter id="filter5_d_302_189" x="164.169" y="132.36" width="15.791" height="16.791" filterUnits="userSpaceOnUse" color-interpolation-filters="sRGB">
<feFlood flood-opacity="0" result="BackgroundImageFix"/>
<feColorMatrix in="SourceAlpha" type="matrix" values="0 0 0 0 0 0 0 0 0 0 0 0 0 0 0 0 0 0 127 0" result="hardAlpha"/>
<feOffset/>
<feGaussianBlur stdDeviation="1.94774"/>
<feComposite in2="hardAlpha" operator="out"/>
<feColorMatrix type="matrix" values="0 0 0 0 1 0 0 0 0 1 0 0 0 0 1 0 0 0 1 0"/>
<feBlend mode="normal" in2="BackgroundImageFix" result="effect1_dropShadow_302_189"/>
<feBlend mode="normal" in="SourceGraphic" in2="effect1_dropShadow_302_189" result="shape"/>
</filter>
<filter id="filter6_d_302_189" x="171.169" y="138.36" width="11.791" height="12.791" filterUnits="userSpaceOnUse" color-interpolation-filters="sRGB">
<feFlood flood-opacity="0" result="BackgroundImageFix"/>
<feColorMatrix in="SourceAlpha" type="matrix" values="0 0 0 0 0 0 0 0 0 0 0 0 0 0 0 0 0 0 127 0" result="hardAlpha"/>
<feOffset/>
<feGaussianBlur stdDeviation="1.94774"/>
<feComposite in2="hardAlpha" operator="out"/>
<feColorMatrix type="matrix" values="0 0 0 0 1 0 0 0 0 1 0 0 0 0 1 0 0 0 1 0"/>
<feBlend mode="normal" in2="BackgroundImageFix" result="effect1_dropShadow_302_189"/>
<feBlend mode="normal" in="SourceGraphic" in2="effect1_dropShadow_302_189" result="shape"/>
</filter>
<linearGradient id="paint0_linear_302_189" x1="63.7886" y1="170.843" x2="252.719" y2="170.843" gradientUnits="userSpaceOnUse">
<stop stop-color="#EC671D"/>
<stop offset="0.5" stop-color="#BA6BEC"/>
<stop offset="1" stop-color="#62B1FF"/>
</linearGradient>
<linearGradient id="paint1_linear_302_189" x1="131.172" y1="105.883" x2="230.052" y2="271.594" gradientUnits="userSpaceOnUse">
<stop offset="0.471154" stop-color="white"/>
<stop offset="1" stop-opacity="0.27"/>
</linearGradient>
<linearGradient id="paint2_linear_302_189" x1="64.0649" y1="158.254" x2="252.996" y2="158.254" gradientUnits="userSpaceOnUse">
<stop stop-color="#EC671D"/>
<stop offset="0.5" stop-color="#BA6BEC"/>
<stop offset="1" stop-color="#62B1FF"/>
</linearGradient>
<linearGradient id="paint3_linear_302_189" x1="124.445" y1="93.0047" x2="247.639" y2="299.465" gradientUnits="userSpaceOnUse">
<stop offset="0.471154" stop-color="white"/>
<stop offset="1" stop-opacity="0.27"/>
</linearGradient>
</defs>
</svg>
