<svg width="300" height="205" viewBox="0 0 300 205" fill="none" xmlns="http://www.w3.org/2000/svg">
<g opacity="0.05">
<g filter="url(#filter0_i_322_232)">
<path d="M74.0308 22.5739C74.0308 17.3437 78.8908 13.4695 83.9895 14.6354L110.365 20.6668C110.961 20.803 111.57 20.8717 112.181 20.8717H146.211H177.194C177.759 20.8717 178.323 20.8129 178.876 20.6963L208.566 14.4313C213.629 13.363 218.391 17.2252 218.391 22.3992V133.769C218.391 138.266 214.745 141.912 210.248 141.912H82.1742C77.6767 141.912 74.0308 138.266 74.0308 133.769V22.5739Z" fill="white" fill-opacity="0.04"/>
</g>
<path d="M208.643 14.7937C213.475 13.7742 218.021 17.4604 218.021 22.3992V133.769C218.021 138.062 214.54 141.542 210.248 141.542H82.1743C77.8814 141.542 74.4011 138.062 74.4009 133.769V22.574C74.4009 17.5816 79.04 13.8832 83.9067 14.9958L110.283 21.0281C110.905 21.1704 111.542 21.2419 112.18 21.2419H177.195C177.785 21.2419 178.375 21.1803 178.953 21.0583L208.643 14.7937Z" stroke="url(#paint0_linear_322_232)" stroke-opacity="0.1" stroke-width="0.740309"/>
</g>
<g opacity="0.82" filter="url(#filter1_di_322_232)">
<rect x="105.124" y="4.9552" width="80.6937" height="16.2868" rx="8.1434" fill="white" fill-opacity="0.04" shape-rendering="crispEdges"/>
<rect x="105.494" y="5.32535" width="79.9534" height="15.5465" rx="7.77325" stroke="url(#paint1_linear_322_232)" stroke-width="0.740309" shape-rendering="crispEdges"/>
</g>
<g opacity="0.4" filter="url(#filter2_di_322_232)">
<rect x="81.4338" y="65.6608" width="128.814" height="31.093" rx="8.1434" fill="white" fill-opacity="0.04" shape-rendering="crispEdges"/>
<rect x="81.804" y="66.0309" width="128.074" height="30.3527" rx="7.77325" stroke="url(#paint2_linear_322_232)" stroke-width="0.740309" shape-rendering="crispEdges"/>
</g>
<g opacity="0.4" filter="url(#filter3_di_322_232)">
<rect x="81.4338" y="27.9049" width="128.814" height="31.093" rx="8.1434" fill="white" fill-opacity="0.04" shape-rendering="crispEdges"/>
<rect x="81.804" y="28.2751" width="128.074" height="30.3527" rx="7.77325" stroke="url(#paint3_linear_322_232)" stroke-width="0.740309" shape-rendering="crispEdges"/>
</g>
<g opacity="0.4" filter="url(#filter4_di_322_232)">
<rect x="81.4338" y="103.416" width="128.814" height="31.093" rx="8.1434" fill="white" fill-opacity="0.04" shape-rendering="crispEdges"/>
<rect x="81.804" y="103.787" width="128.074" height="30.3527" rx="7.77325" stroke="url(#paint4_linear_322_232)" stroke-width="0.740309" shape-rendering="crispEdges"/>
</g>
<g opacity="0.48" filter="url(#filter5_di_322_232)">
<rect x="54.0427" y="147.095" width="183.597" height="48.8604" rx="8.1434" fill="white" fill-opacity="0.04" shape-rendering="crispEdges"/>
<rect x="54.4129" y="147.465" width="182.856" height="48.1201" rx="7.77325" stroke="url(#paint5_linear_322_232)" stroke-width="0.740309" shape-rendering="crispEdges"/>
</g>
<g filter="url(#filter6_i_322_232)">
<rect x="57.0039" y="150.056" width="177.674" height="42.9379" rx="5.92248" fill="url(#paint6_linear_322_232)"/>
</g>
<rect x="57.3741" y="150.426" width="176.934" height="42.1976" rx="5.55232" stroke="url(#paint7_linear_322_232)" stroke-opacity="0.1" stroke-width="0.740309"/>
<g opacity="0.82">
<g filter="url(#filter7_i_322_232)">
<rect x="84.3953" y="68.6217" width="122.891" height="25.1705" rx="5.92248" fill="white" fill-opacity="0.04"/>
</g>
<rect x="84.7654" y="68.9919" width="122.151" height="24.4302" rx="5.55232" stroke="url(#paint8_linear_322_232)" stroke-width="0.740309"/>
</g>
<g filter="url(#filter8_d_322_232)">
<path d="M146.211 159.68L149.51 169.676L158.426 173.375L149.51 177.074L146.211 187.071L142.912 177.074L133.996 173.375L142.912 169.676L146.211 159.68Z" fill="white"/>
</g>
<g filter="url(#filter9_d_322_232)">
<rect x="96.2402" y="36.7886" width="25.9108" height="5.18217" fill="white"/>
</g>
<g filter="url(#filter10_d_322_232)">
<rect x="96.2402" y="74.5442" width="25.9108" height="5.18217" fill="white"/>
</g>
<g filter="url(#filter11_d_322_232)">
<rect x="96.2402" y="112.3" width="25.9108" height="5.18217" fill="white"/>
</g>
<g filter="url(#filter12_d_322_232)">
<rect x="96.2402" y="44.9319" width="62.9263" height="5.18217" fill="#D9D9D9" fill-opacity="0.53" shape-rendering="crispEdges"/>
<rect x="96.3652" y="45.0569" width="62.6763" height="4.93217" stroke="url(#paint9_linear_322_232)" stroke-width="0.25" shape-rendering="crispEdges"/>
</g>
<g filter="url(#filter13_d_322_232)">
<rect x="96.2402" y="82.6876" width="62.9263" height="5.18217" fill="#D9D9D9" fill-opacity="0.53" shape-rendering="crispEdges"/>
<rect x="96.3652" y="82.8126" width="62.6763" height="4.93217" stroke="url(#paint10_linear_322_232)" stroke-width="0.25" shape-rendering="crispEdges"/>
</g>
<g filter="url(#filter14_d_322_232)">
<rect x="96.2402" y="120.443" width="62.9263" height="5.18217" fill="#D9D9D9" fill-opacity="0.53" shape-rendering="crispEdges"/>
<rect x="96.3652" y="120.568" width="62.6763" height="4.93217" stroke="url(#paint11_linear_322_232)" stroke-width="0.25" shape-rendering="crispEdges"/>
</g>
<g filter="url(#filter15_d_322_232)">
<path d="M116.132 15.3969H115.592L117.539 10.0962H118.198L120.167 15.3969H119.612L119.094 13.9903H116.651L116.132 15.3969ZM117.798 10.8439L116.813 13.5239H118.923L117.931 10.8439C117.909 10.7699 117.872 10.6811 117.865 10.6293C117.857 10.6737 117.828 10.7699 117.798 10.8439ZM120.643 13.5535V10.0962H121.176V13.5313C121.176 14.4641 121.687 14.9675 122.612 14.9675C123.515 14.9675 124.026 14.4493 124.026 13.5313V10.0962H124.559V13.5535C124.559 14.7528 123.819 15.4857 122.612 15.4857C121.383 15.4857 120.643 14.7602 120.643 13.5535ZM125.258 10.5848V10.0962H129.055V10.5848H127.419V15.3969H126.886V10.5848H125.258ZM134.317 12.7465C134.317 14.353 133.273 15.4857 131.793 15.4857C130.305 15.4857 129.268 14.353 129.268 12.7465C129.268 11.1401 130.312 9.99999 131.793 9.99999C133.281 9.99999 134.317 11.1327 134.317 12.7465ZM133.769 12.7465C133.769 11.4214 132.962 10.5182 131.793 10.5182C130.623 10.5182 129.823 11.4214 129.823 12.7465C129.823 14.0717 130.623 14.9749 131.793 14.9749C132.962 14.9749 133.769 14.0643 133.769 12.7465ZM135.809 15.3969H135.284V10.0962H135.809L137.741 14.7676L139.674 10.0962H140.207V15.3969H139.681V12.8798C139.681 11.9544 139.696 11.5472 139.725 11.1845L138 15.3969H137.49L135.765 11.2067C135.794 11.4066 135.809 11.9914 135.809 12.7984V15.3969ZM141.494 15.3969H140.953L142.9 10.0962H143.559L145.528 15.3969H144.973L144.455 13.9903H142.012L141.494 15.3969ZM143.159 10.8439L142.175 13.5239H144.285L143.293 10.8439C143.27 10.7699 143.233 10.6811 143.226 10.6293C143.219 10.6737 143.189 10.7699 143.159 10.8439ZM145.226 10.5848V10.0962H149.023V10.5848H147.387V15.3969H146.854V10.5848H145.226ZM150.29 10.0962V15.3969H149.757V10.0962H150.29ZM151.261 11.4732C151.261 10.5848 151.971 9.99999 153.037 9.99999C153.992 9.99999 154.622 10.533 154.703 11.4214H154.163C154.103 10.8217 153.696 10.4812 153.03 10.4812C152.282 10.4812 151.794 10.8662 151.794 11.4658C151.794 11.9322 152.068 12.2283 152.623 12.369L153.533 12.5911C154.363 12.791 154.792 13.2648 154.792 13.9829C154.792 14.9008 154.081 15.4857 152.986 15.4857C151.957 15.4857 151.261 14.9453 151.194 14.0791H151.742C151.771 14.6343 152.26 14.9971 152.986 14.9971C153.763 14.9971 154.259 14.6195 154.259 14.0125C154.259 13.5387 153.992 13.2277 153.422 13.0945L152.527 12.8724C151.697 12.6725 151.261 12.1987 151.261 11.4732ZM155.75 15.3969H155.21L157.157 10.0962H157.816L159.785 15.3969H159.23L158.712 13.9903H156.269L155.75 15.3969ZM157.416 10.8439L156.432 13.5239H158.541L157.549 10.8439C157.527 10.7699 157.49 10.6811 157.483 10.6293C157.475 10.6737 157.446 10.7699 157.416 10.8439ZM159.482 10.5848V10.0962H163.28V10.5848H161.644V15.3969H161.111V10.5848H159.482ZM164.547 10.0962V15.3969H164.014V10.0962H164.547ZM170.559 12.7465C170.559 14.353 169.515 15.4857 168.034 15.4857C166.546 15.4857 165.51 14.353 165.51 12.7465C165.51 11.1401 166.554 9.99999 168.034 9.99999C169.522 9.99999 170.559 11.1327 170.559 12.7465ZM170.011 12.7465C170.011 11.4214 169.204 10.5182 168.034 10.5182C166.865 10.5182 166.065 11.4214 166.065 12.7465C166.065 14.0717 166.865 14.9749 168.034 14.9749C169.204 14.9749 170.011 14.0643 170.011 12.7465ZM172.058 15.3969H171.525V10.0962H172.066L174.983 14.5085V10.0962H175.508V15.3969H174.983L172.058 10.9846V15.3969Z" fill="white"/>
</g>
<path d="M75.2939 160.68H66.4428H57.7441L49.6007 155.979H19.6182H0" stroke="url(#paint12_linear_322_232)" stroke-opacity="0.3" stroke-width="0.740309"/>
<circle cx="78.1023" cy="160.68" r="2.96124" fill="white" fill-opacity="0.04"/>
<circle cx="78.1023" cy="160.68" r="2.8687" stroke="url(#paint13_linear_322_232)" stroke-opacity="0.29" stroke-width="0.185077"/>
<path d="M62.7087 182.889H53.8575H45.1589L37.0155 178.188H7.03296" stroke="url(#paint14_linear_322_232)" stroke-opacity="0.3" stroke-width="0.740309"/>
<circle cx="65.5174" cy="182.889" r="2.96124" fill="white" fill-opacity="0.04"/>
<circle cx="65.5174" cy="182.889" r="2.8687" stroke="url(#paint15_linear_322_232)" stroke-opacity="0.29" stroke-width="0.185077"/>
<path d="M224.161 184.37H233.012H241.711L249.854 179.668H279.837H299.455" stroke="url(#paint16_linear_322_232)" stroke-opacity="0.3" stroke-width="0.740309"/>
<circle cx="2.96124" cy="2.96124" r="2.96124" transform="matrix(-1 0 0 1 224.314 181.408)" fill="white" fill-opacity="0.04"/>
<circle cx="2.96124" cy="2.96124" r="2.8687" transform="matrix(-1 0 0 1 224.314 181.408)" stroke="url(#paint17_linear_322_232)" stroke-opacity="0.29" stroke-width="0.185077"/>
<path d="M224.161 168.083H233.012H241.711L249.854 163.382H279.837" stroke="url(#paint18_linear_322_232)" stroke-opacity="0.3" stroke-width="0.740309"/>
<circle cx="2.96124" cy="2.96124" r="2.96124" transform="matrix(-1 0 0 1 224.314 165.122)" fill="white" fill-opacity="0.04"/>
<circle cx="2.96124" cy="2.96124" r="2.8687" transform="matrix(-1 0 0 1 224.314 165.122)" stroke="url(#paint19_linear_322_232)" stroke-opacity="0.29" stroke-width="0.185077"/>
<defs>
<filter id="filter0_i_322_232" x="74.0308" y="14.2528" width="144.36" height="127.659" filterUnits="userSpaceOnUse" color-interpolation-filters="sRGB">
<feFlood flood-opacity="0" result="BackgroundImageFix"/>
<feBlend mode="normal" in="SourceGraphic" in2="BackgroundImageFix" result="shape"/>
<feColorMatrix in="SourceAlpha" type="matrix" values="0 0 0 0 0 0 0 0 0 0 0 0 0 0 0 0 0 0 127 0" result="hardAlpha"/>
<feOffset/>
<feGaussianBlur stdDeviation="1.48062"/>
<feComposite in2="hardAlpha" operator="arithmetic" k2="-1" k3="1"/>
<feColorMatrix type="matrix" values="0 0 0 0 1 0 0 0 0 1 0 0 0 0 1 0 0 0 1 0"/>
<feBlend mode="normal" in2="shape" result="effect1_innerShadow_322_232"/>
</filter>
<filter id="filter1_di_322_232" x="99.2015" y="1.99396" width="92.5386" height="28.1318" filterUnits="userSpaceOnUse" color-interpolation-filters="sRGB">
<feFlood flood-opacity="0" result="BackgroundImageFix"/>
<feColorMatrix in="SourceAlpha" type="matrix" values="0 0 0 0 0 0 0 0 0 0 0 0 0 0 0 0 0 0 127 0" result="hardAlpha"/>
<feOffset dy="2.96124"/>
<feGaussianBlur stdDeviation="2.96124"/>
<feComposite in2="hardAlpha" operator="out"/>
<feColorMatrix type="matrix" values="0 0 0 0 0 0 0 0 0 0 0 0 0 0 0 0 0 0 0.25 0"/>
<feBlend mode="normal" in2="BackgroundImageFix" result="effect1_dropShadow_322_232"/>
<feBlend mode="normal" in="SourceGraphic" in2="effect1_dropShadow_322_232" result="shape"/>
<feColorMatrix in="SourceAlpha" type="matrix" values="0 0 0 0 0 0 0 0 0 0 0 0 0 0 0 0 0 0 127 0" result="hardAlpha"/>
<feOffset/>
<feGaussianBlur stdDeviation="1.48062"/>
<feComposite in2="hardAlpha" operator="arithmetic" k2="-1" k3="1"/>
<feColorMatrix type="matrix" values="0 0 0 0 1 0 0 0 0 1 0 0 0 0 1 0 0 0 1 0"/>
<feBlend mode="normal" in2="shape" result="effect2_innerShadow_322_232"/>
</filter>
<filter id="filter2_di_322_232" x="75.5114" y="62.6995" width="140.659" height="42.938" filterUnits="userSpaceOnUse" color-interpolation-filters="sRGB">
<feFlood flood-opacity="0" result="BackgroundImageFix"/>
<feColorMatrix in="SourceAlpha" type="matrix" values="0 0 0 0 0 0 0 0 0 0 0 0 0 0 0 0 0 0 127 0" result="hardAlpha"/>
<feOffset dy="2.96124"/>
<feGaussianBlur stdDeviation="2.96124"/>
<feComposite in2="hardAlpha" operator="out"/>
<feColorMatrix type="matrix" values="0 0 0 0 0 0 0 0 0 0 0 0 0 0 0 0 0 0 0.25 0"/>
<feBlend mode="normal" in2="BackgroundImageFix" result="effect1_dropShadow_322_232"/>
<feBlend mode="normal" in="SourceGraphic" in2="effect1_dropShadow_322_232" result="shape"/>
<feColorMatrix in="SourceAlpha" type="matrix" values="0 0 0 0 0 0 0 0 0 0 0 0 0 0 0 0 0 0 127 0" result="hardAlpha"/>
<feOffset/>
<feGaussianBlur stdDeviation="1.48062"/>
<feComposite in2="hardAlpha" operator="arithmetic" k2="-1" k3="1"/>
<feColorMatrix type="matrix" values="0 0 0 0 1 0 0 0 0 1 0 0 0 0 1 0 0 0 1 0"/>
<feBlend mode="normal" in2="shape" result="effect2_innerShadow_322_232"/>
</filter>
<filter id="filter3_di_322_232" x="75.5114" y="24.9437" width="140.659" height="42.938" filterUnits="userSpaceOnUse" color-interpolation-filters="sRGB">
<feFlood flood-opacity="0" result="BackgroundImageFix"/>
<feColorMatrix in="SourceAlpha" type="matrix" values="0 0 0 0 0 0 0 0 0 0 0 0 0 0 0 0 0 0 127 0" result="hardAlpha"/>
<feOffset dy="2.96124"/>
<feGaussianBlur stdDeviation="2.96124"/>
<feComposite in2="hardAlpha" operator="out"/>
<feColorMatrix type="matrix" values="0 0 0 0 0 0 0 0 0 0 0 0 0 0 0 0 0 0 0.25 0"/>
<feBlend mode="normal" in2="BackgroundImageFix" result="effect1_dropShadow_322_232"/>
<feBlend mode="normal" in="SourceGraphic" in2="effect1_dropShadow_322_232" result="shape"/>
<feColorMatrix in="SourceAlpha" type="matrix" values="0 0 0 0 0 0 0 0 0 0 0 0 0 0 0 0 0 0 127 0" result="hardAlpha"/>
<feOffset/>
<feGaussianBlur stdDeviation="1.48062"/>
<feComposite in2="hardAlpha" operator="arithmetic" k2="-1" k3="1"/>
<feColorMatrix type="matrix" values="0 0 0 0 1 0 0 0 0 1 0 0 0 0 1 0 0 0 1 0"/>
<feBlend mode="normal" in2="shape" result="effect2_innerShadow_322_232"/>
</filter>
<filter id="filter4_di_322_232" x="75.5114" y="100.455" width="140.659" height="42.938" filterUnits="userSpaceOnUse" color-interpolation-filters="sRGB">
<feFlood flood-opacity="0" result="BackgroundImageFix"/>
<feColorMatrix in="SourceAlpha" type="matrix" values="0 0 0 0 0 0 0 0 0 0 0 0 0 0 0 0 0 0 127 0" result="hardAlpha"/>
<feOffset dy="2.96124"/>
<feGaussianBlur stdDeviation="2.96124"/>
<feComposite in2="hardAlpha" operator="out"/>
<feColorMatrix type="matrix" values="0 0 0 0 0 0 0 0 0 0 0 0 0 0 0 0 0 0 0.25 0"/>
<feBlend mode="normal" in2="BackgroundImageFix" result="effect1_dropShadow_322_232"/>
<feBlend mode="normal" in="SourceGraphic" in2="effect1_dropShadow_322_232" result="shape"/>
<feColorMatrix in="SourceAlpha" type="matrix" values="0 0 0 0 0 0 0 0 0 0 0 0 0 0 0 0 0 0 127 0" result="hardAlpha"/>
<feOffset/>
<feGaussianBlur stdDeviation="1.48062"/>
<feComposite in2="hardAlpha" operator="arithmetic" k2="-1" k3="1"/>
<feColorMatrix type="matrix" values="0 0 0 0 1 0 0 0 0 1 0 0 0 0 1 0 0 0 1 0"/>
<feBlend mode="normal" in2="shape" result="effect2_innerShadow_322_232"/>
</filter>
<filter id="filter5_di_322_232" x="48.1202" y="144.133" width="195.442" height="60.7054" filterUnits="userSpaceOnUse" color-interpolation-filters="sRGB">
<feFlood flood-opacity="0" result="BackgroundImageFix"/>
<feColorMatrix in="SourceAlpha" type="matrix" values="0 0 0 0 0 0 0 0 0 0 0 0 0 0 0 0 0 0 127 0" result="hardAlpha"/>
<feOffset dy="2.96124"/>
<feGaussianBlur stdDeviation="2.96124"/>
<feComposite in2="hardAlpha" operator="out"/>
<feColorMatrix type="matrix" values="0 0 0 0 0 0 0 0 0 0 0 0 0 0 0 0 0 0 0.25 0"/>
<feBlend mode="normal" in2="BackgroundImageFix" result="effect1_dropShadow_322_232"/>
<feBlend mode="normal" in="SourceGraphic" in2="effect1_dropShadow_322_232" result="shape"/>
<feColorMatrix in="SourceAlpha" type="matrix" values="0 0 0 0 0 0 0 0 0 0 0 0 0 0 0 0 0 0 127 0" result="hardAlpha"/>
<feOffset/>
<feGaussianBlur stdDeviation="1.48062"/>
<feComposite in2="hardAlpha" operator="arithmetic" k2="-1" k3="1"/>
<feColorMatrix type="matrix" values="0 0 0 0 1 0 0 0 0 1 0 0 0 0 1 0 0 0 1 0"/>
<feBlend mode="normal" in2="shape" result="effect2_innerShadow_322_232"/>
</filter>
<filter id="filter6_i_322_232" x="57.0039" y="150.056" width="177.674" height="42.938" filterUnits="userSpaceOnUse" color-interpolation-filters="sRGB">
<feFlood flood-opacity="0" result="BackgroundImageFix"/>
<feBlend mode="normal" in="SourceGraphic" in2="BackgroundImageFix" result="shape"/>
<feColorMatrix in="SourceAlpha" type="matrix" values="0 0 0 0 0 0 0 0 0 0 0 0 0 0 0 0 0 0 127 0" result="hardAlpha"/>
<feOffset/>
<feGaussianBlur stdDeviation="1.48062"/>
<feComposite in2="hardAlpha" operator="arithmetic" k2="-1" k3="1"/>
<feColorMatrix type="matrix" values="0 0 0 0 1 0 0 0 0 1 0 0 0 0 1 0 0 0 1 0"/>
<feBlend mode="normal" in2="shape" result="effect1_innerShadow_322_232"/>
</filter>
<filter id="filter7_i_322_232" x="84.3953" y="68.6217" width="122.891" height="25.1705" filterUnits="userSpaceOnUse" color-interpolation-filters="sRGB">
<feFlood flood-opacity="0" result="BackgroundImageFix"/>
<feBlend mode="normal" in="SourceGraphic" in2="BackgroundImageFix" result="shape"/>
<feColorMatrix in="SourceAlpha" type="matrix" values="0 0 0 0 0 0 0 0 0 0 0 0 0 0 0 0 0 0 127 0" result="hardAlpha"/>
<feOffset/>
<feGaussianBlur stdDeviation="1.48062"/>
<feComposite in2="hardAlpha" operator="arithmetic" k2="-1" k3="1"/>
<feColorMatrix type="matrix" values="0 0 0 0 1 0 0 0 0 1 0 0 0 0 1 0 0 0 1 0"/>
<feBlend mode="normal" in2="shape" result="effect1_innerShadow_322_232"/>
</filter>
<filter id="filter8_d_322_232" x="131.112" y="156.796" width="30.1979" height="33.1592" filterUnits="userSpaceOnUse" color-interpolation-filters="sRGB">
<feFlood flood-opacity="0" result="BackgroundImageFix"/>
<feColorMatrix in="SourceAlpha" type="matrix" values="0 0 0 0 0 0 0 0 0 0 0 0 0 0 0 0 0 0 127 0" result="hardAlpha"/>
<feOffset/>
<feGaussianBlur stdDeviation="1.44193"/>
<feComposite in2="hardAlpha" operator="out"/>
<feColorMatrix type="matrix" values="0 0 0 0 1 0 0 0 0 1 0 0 0 0 1 0 0 0 1 0"/>
<feBlend mode="normal" in2="BackgroundImageFix" result="effect1_dropShadow_322_232"/>
<feBlend mode="normal" in="SourceGraphic" in2="effect1_dropShadow_322_232" result="shape"/>
</filter>
<filter id="filter9_d_322_232" x="93.7402" y="34.2886" width="30.9109" height="10.1821" filterUnits="userSpaceOnUse" color-interpolation-filters="sRGB">
<feFlood flood-opacity="0" result="BackgroundImageFix"/>
<feColorMatrix in="SourceAlpha" type="matrix" values="0 0 0 0 0 0 0 0 0 0 0 0 0 0 0 0 0 0 127 0" result="hardAlpha"/>
<feOffset/>
<feGaussianBlur stdDeviation="1.25"/>
<feComposite in2="hardAlpha" operator="out"/>
<feColorMatrix type="matrix" values="0 0 0 0 1 0 0 0 0 1 0 0 0 0 1 0 0 0 1 0"/>
<feBlend mode="normal" in2="BackgroundImageFix" result="effect1_dropShadow_322_232"/>
<feBlend mode="normal" in="SourceGraphic" in2="effect1_dropShadow_322_232" result="shape"/>
</filter>
<filter id="filter10_d_322_232" x="93.7402" y="72.0442" width="30.9109" height="10.1821" filterUnits="userSpaceOnUse" color-interpolation-filters="sRGB">
<feFlood flood-opacity="0" result="BackgroundImageFix"/>
<feColorMatrix in="SourceAlpha" type="matrix" values="0 0 0 0 0 0 0 0 0 0 0 0 0 0 0 0 0 0 127 0" result="hardAlpha"/>
<feOffset/>
<feGaussianBlur stdDeviation="1.25"/>
<feComposite in2="hardAlpha" operator="out"/>
<feColorMatrix type="matrix" values="0 0 0 0 1 0 0 0 0 1 0 0 0 0 1 0 0 0 1 0"/>
<feBlend mode="normal" in2="BackgroundImageFix" result="effect1_dropShadow_322_232"/>
<feBlend mode="normal" in="SourceGraphic" in2="effect1_dropShadow_322_232" result="shape"/>
</filter>
<filter id="filter11_d_322_232" x="93.7402" y="109.8" width="30.9109" height="10.1821" filterUnits="userSpaceOnUse" color-interpolation-filters="sRGB">
<feFlood flood-opacity="0" result="BackgroundImageFix"/>
<feColorMatrix in="SourceAlpha" type="matrix" values="0 0 0 0 0 0 0 0 0 0 0 0 0 0 0 0 0 0 127 0" result="hardAlpha"/>
<feOffset/>
<feGaussianBlur stdDeviation="1.25"/>
<feComposite in2="hardAlpha" operator="out"/>
<feColorMatrix type="matrix" values="0 0 0 0 1 0 0 0 0 1 0 0 0 0 1 0 0 0 1 0"/>
<feBlend mode="normal" in2="BackgroundImageFix" result="effect1_dropShadow_322_232"/>
<feBlend mode="normal" in="SourceGraphic" in2="effect1_dropShadow_322_232" result="shape"/>
</filter>
<filter id="filter12_d_322_232" x="94.2402" y="42.9319" width="66.9263" height="9.18213" filterUnits="userSpaceOnUse" color-interpolation-filters="sRGB">
<feFlood flood-opacity="0" result="BackgroundImageFix"/>
<feColorMatrix in="SourceAlpha" type="matrix" values="0 0 0 0 0 0 0 0 0 0 0 0 0 0 0 0 0 0 127 0" result="hardAlpha"/>
<feOffset/>
<feGaussianBlur stdDeviation="1"/>
<feComposite in2="hardAlpha" operator="out"/>
<feColorMatrix type="matrix" values="0 0 0 0 1 0 0 0 0 1 0 0 0 0 1 0 0 0 1 0"/>
<feBlend mode="normal" in2="BackgroundImageFix" result="effect1_dropShadow_322_232"/>
<feBlend mode="normal" in="SourceGraphic" in2="effect1_dropShadow_322_232" result="shape"/>
</filter>
<filter id="filter13_d_322_232" x="94.2402" y="80.6876" width="66.9263" height="9.18213" filterUnits="userSpaceOnUse" color-interpolation-filters="sRGB">
<feFlood flood-opacity="0" result="BackgroundImageFix"/>
<feColorMatrix in="SourceAlpha" type="matrix" values="0 0 0 0 0 0 0 0 0 0 0 0 0 0 0 0 0 0 127 0" result="hardAlpha"/>
<feOffset/>
<feGaussianBlur stdDeviation="1"/>
<feComposite in2="hardAlpha" operator="out"/>
<feColorMatrix type="matrix" values="0 0 0 0 1 0 0 0 0 1 0 0 0 0 1 0 0 0 1 0"/>
<feBlend mode="normal" in2="BackgroundImageFix" result="effect1_dropShadow_322_232"/>
<feBlend mode="normal" in="SourceGraphic" in2="effect1_dropShadow_322_232" result="shape"/>
</filter>
<filter id="filter14_d_322_232" x="94.2402" y="118.443" width="66.9263" height="9.18213" filterUnits="userSpaceOnUse" color-interpolation-filters="sRGB">
<feFlood flood-opacity="0" result="BackgroundImageFix"/>
<feColorMatrix in="SourceAlpha" type="matrix" values="0 0 0 0 0 0 0 0 0 0 0 0 0 0 0 0 0 0 127 0" result="hardAlpha"/>
<feOffset/>
<feGaussianBlur stdDeviation="1"/>
<feComposite in2="hardAlpha" operator="out"/>
<feColorMatrix type="matrix" values="0 0 0 0 1 0 0 0 0 1 0 0 0 0 1 0 0 0 1 0"/>
<feBlend mode="normal" in2="BackgroundImageFix" result="effect1_dropShadow_322_232"/>
<feBlend mode="normal" in="SourceGraphic" in2="effect1_dropShadow_322_232" result="shape"/>
</filter>
<filter id="filter15_d_322_232" x="105.592" y="0" width="79.9163" height="25.4857" filterUnits="userSpaceOnUse" color-interpolation-filters="sRGB">
<feFlood flood-opacity="0" result="BackgroundImageFix"/>
<feColorMatrix in="SourceAlpha" type="matrix" values="0 0 0 0 0 0 0 0 0 0 0 0 0 0 0 0 0 0 127 0" result="hardAlpha"/>
<feOffset/>
<feGaussianBlur stdDeviation="5"/>
<feComposite in2="hardAlpha" operator="out"/>
<feColorMatrix type="matrix" values="0 0 0 0 1 0 0 0 0 1 0 0 0 0 1 0 0 0 1 0"/>
<feBlend mode="normal" in2="BackgroundImageFix" result="effect1_dropShadow_322_232"/>
<feBlend mode="normal" in="SourceGraphic" in2="effect1_dropShadow_322_232" result="shape"/>
</filter>
<linearGradient id="paint0_linear_322_232" x1="146.873" y1="12.3582" x2="146.873" y2="141.912" gradientUnits="userSpaceOnUse">
<stop stop-color="white"/>
<stop offset="0.1875" stop-color="white" stop-opacity="0"/>
<stop offset="0.788462" stop-color="white" stop-opacity="0"/>
<stop offset="1" stop-color="white"/>
</linearGradient>
<linearGradient id="paint1_linear_322_232" x1="145.841" y1="4.9552" x2="145.841" y2="21.242" gradientUnits="userSpaceOnUse">
<stop stop-color="white"/>
<stop offset="0.1875" stop-color="white" stop-opacity="0"/>
<stop offset="0.788462" stop-color="white" stop-opacity="0"/>
<stop offset="1" stop-color="white"/>
</linearGradient>
<linearGradient id="paint2_linear_322_232" x1="116.18" y1="67.5018" x2="124.478" y2="125.114" gradientUnits="userSpaceOnUse">
<stop offset="0.471154" stop-color="white"/>
<stop offset="1" stop-opacity="0.27"/>
</linearGradient>
<linearGradient id="paint3_linear_322_232" x1="116.18" y1="29.7459" x2="124.478" y2="87.3579" gradientUnits="userSpaceOnUse">
<stop offset="0.471154" stop-color="white"/>
<stop offset="1" stop-opacity="0.27"/>
</linearGradient>
<linearGradient id="paint4_linear_322_232" x1="116.18" y1="105.257" x2="124.478" y2="162.869" gradientUnits="userSpaceOnUse">
<stop offset="0.471154" stop-color="white"/>
<stop offset="1" stop-opacity="0.27"/>
</linearGradient>
<linearGradient id="paint5_linear_322_232" x1="103.566" y1="149.988" x2="117.879" y2="240.126" gradientUnits="userSpaceOnUse">
<stop offset="0.471154" stop-color="white"/>
<stop offset="1" stop-opacity="0.27"/>
</linearGradient>
<linearGradient id="paint6_linear_322_232" x1="229.573" y1="150.056" x2="54.9445" y2="186.266" gradientUnits="userSpaceOnUse">
<stop stop-color="white"/>
<stop offset="1" stop-color="#B0B0B0" stop-opacity="0"/>
</linearGradient>
<linearGradient id="paint7_linear_322_232" x1="146.656" y1="150.056" x2="146.656" y2="192.994" gradientUnits="userSpaceOnUse">
<stop stop-color="white"/>
<stop offset="0.1875" stop-color="white" stop-opacity="0"/>
<stop offset="0.788462" stop-color="white" stop-opacity="0"/>
<stop offset="1" stop-color="white"/>
</linearGradient>
<linearGradient id="paint8_linear_322_232" x1="146.405" y1="68.6217" x2="146.405" y2="93.7922" gradientUnits="userSpaceOnUse">
<stop stop-color="white"/>
<stop offset="0.1875" stop-color="white" stop-opacity="0"/>
<stop offset="0.788462" stop-color="white" stop-opacity="0"/>
<stop offset="1" stop-color="white"/>
</linearGradient>
<linearGradient id="paint9_linear_322_232" x1="113.214" y1="45.2387" x2="113.694" y2="55.0163" gradientUnits="userSpaceOnUse">
<stop offset="0.471154" stop-color="white"/>
<stop offset="1" stop-opacity="0.27"/>
</linearGradient>
<linearGradient id="paint10_linear_322_232" x1="113.214" y1="82.9945" x2="113.694" y2="92.772" gradientUnits="userSpaceOnUse">
<stop offset="0.471154" stop-color="white"/>
<stop offset="1" stop-opacity="0.27"/>
</linearGradient>
<linearGradient id="paint11_linear_322_232" x1="113.214" y1="120.75" x2="113.694" y2="130.528" gradientUnits="userSpaceOnUse">
<stop offset="0.471154" stop-color="white"/>
<stop offset="1" stop-opacity="0.27"/>
</linearGradient>
<linearGradient id="paint12_linear_322_232" x1="-39.6065" y1="160.68" x2="-37.5483" y2="176.059" gradientUnits="userSpaceOnUse">
<stop stop-color="white" stop-opacity="0.05"/>
<stop offset="1" stop-color="white"/>
</linearGradient>
<linearGradient id="paint13_linear_322_232" x1="75.1411" y1="160.79" x2="78.8427" y2="160.79" gradientUnits="userSpaceOnUse">
<stop stop-color="white"/>
<stop offset="1" stop-color="#666666" stop-opacity="0"/>
</linearGradient>
<linearGradient id="paint14_linear_322_232" x1="-52.1918" y1="182.889" x2="-50.1336" y2="198.268" gradientUnits="userSpaceOnUse">
<stop stop-color="white" stop-opacity="0.05"/>
<stop offset="1" stop-color="white"/>
</linearGradient>
<linearGradient id="paint15_linear_322_232" x1="62.5561" y1="183" x2="66.2577" y2="183" gradientUnits="userSpaceOnUse">
<stop stop-color="white"/>
<stop offset="1" stop-color="#666666" stop-opacity="0"/>
</linearGradient>
<linearGradient id="paint16_linear_322_232" x1="339.062" y1="184.37" x2="337.003" y2="199.748" gradientUnits="userSpaceOnUse">
<stop stop-color="white" stop-opacity="0.05"/>
<stop offset="1" stop-color="white"/>
</linearGradient>
<linearGradient id="paint17_linear_322_232" x1="1.81055e-08" y1="3.07167" x2="3.70155" y2="3.07167" gradientUnits="userSpaceOnUse">
<stop stop-color="white"/>
<stop offset="1" stop-color="#666666" stop-opacity="0"/>
</linearGradient>
<linearGradient id="paint18_linear_322_232" x1="339.062" y1="168.083" x2="337.003" y2="183.462" gradientUnits="userSpaceOnUse">
<stop stop-color="white" stop-opacity="0.05"/>
<stop offset="1" stop-color="white"/>
</linearGradient>
<linearGradient id="paint19_linear_322_232" x1="1.81055e-08" y1="3.07167" x2="3.70155" y2="3.07167" gradientUnits="userSpaceOnUse">
<stop stop-color="white"/>
<stop offset="1" stop-color="#666666" stop-opacity="0"/>
</linearGradient>
</defs>
</svg>
