<svg width="51" height="14" viewBox="0 0 51 14" fill="none" xmlns="http://www.w3.org/2000/svg">
<path d="M14.9051 3.88462V5.99858C14.9051 6.23189 14.6036 6.60762 14.35 6.6199C12.9041 6.73595 11.2985 6.50019 9.87224 6.63097C8.88495 6.72122 8.53068 7.42793 8.9267 8.31636C9.44306 9.47495 10.3573 10.679 10.9473 11.8314C11.1536 12.2342 11.2997 12.5418 10.9381 12.9268L9.04828 14L7.77733 11.7761C7.59068 11.525 7.26772 11.5238 7.11177 11.8025L5.88196 13.9945C5.83407 14.0092 5.79785 13.9902 5.75487 13.973C5.39999 13.8312 4.44217 13.2454 4.10018 13.0121C3.69802 12.7377 3.64276 12.4368 3.8552 11.9898C4.29911 11.0566 5.02913 10.0318 5.54242 9.10042C5.9016 8.44837 6.56778 7.54704 5.79661 6.91341C5.57742 6.73351 5.31464 6.65124 5.03527 6.62914C3.64337 6.51924 1.99606 6.78691 0.636701 6.62605C0.354882 6.5929 0 6.34362 0 6.04277V3.88525H2.72425C2.86301 3.88525 3.04413 3.55613 2.93484 3.41307L1.65898 1.12352C2.19376 0.803636 2.76968 0.397796 3.32717 0.129485C3.6796 -0.0399741 3.94546 -0.0706541 4.24815 0.2259L6.53953 4.16766C7.10317 4.86821 7.84548 4.85164 8.38702 4.1431L10.6796 0.202546C10.8878 0.00300116 11.1751 -0.0497883 11.444 0.0472212L13.2467 1.12169L11.9629 3.40387C11.8646 3.54263 12.0378 3.88462 12.182 3.88462H14.9063H14.9051Z" fill="white"/>
<path d="M19.6097 6.22991C19.6097 5.88846 19.6977 5.58703 19.8738 5.32561C20.0499 5.06419 20.2926 4.86145 20.602 4.71741C20.9168 4.56802 21.2796 4.49333 21.6904 4.49333C22.0852 4.49333 22.4266 4.56269 22.7147 4.7014C23.0082 4.84011 23.2349 5.03751 23.395 5.2936C23.5604 5.54968 23.6484 5.85378 23.6591 6.2059H22.6347C22.624 5.95515 22.5334 5.76042 22.3626 5.62171C22.1919 5.47766 21.9625 5.40563 21.6744 5.40563C21.3596 5.40563 21.1062 5.47766 20.9141 5.62171C20.7274 5.76042 20.6341 5.95248 20.6341 6.1979C20.6341 6.40597 20.6901 6.57136 20.8021 6.69406C20.9195 6.81144 21.1009 6.89946 21.3463 6.95815L22.2666 7.16622C22.7681 7.27292 23.1416 7.45698 23.387 7.7184C23.6324 7.97449 23.7551 8.32127 23.7551 8.75875C23.7551 9.1162 23.6671 9.43097 23.491 9.70306C23.3149 9.97515 23.0642 10.1859 22.7388 10.3353C22.4186 10.4793 22.0425 10.5513 21.6104 10.5513C21.1996 10.5513 20.8395 10.482 20.53 10.3433C20.2206 10.1992 19.9778 9.99916 19.8018 9.74308C19.6311 9.48699 19.5404 9.18556 19.5297 8.83878H20.554C20.5594 9.08419 20.6554 9.27892 20.8421 9.42297C21.0342 9.56168 21.2929 9.63104 21.6184 9.63104C21.9598 9.63104 22.2292 9.56168 22.4266 9.42297C22.6294 9.27892 22.7307 9.08953 22.7307 8.85478C22.7307 8.65205 22.6774 8.49199 22.5707 8.37462C22.464 8.25191 22.2906 8.16655 22.0505 8.11854L21.1222 7.91047C20.626 7.80377 20.2499 7.6117 19.9938 7.33428C19.7378 7.05152 19.6097 6.68339 19.6097 6.22991ZM25.514 10.4473H24.5377V4.49333H25.5221V7.00617C25.6448 6.8141 25.8155 6.66205 26.0342 6.55002C26.2583 6.43264 26.5144 6.37396 26.8025 6.37396C27.288 6.37396 27.6561 6.52067 27.9068 6.8141C28.1629 7.10753 28.291 7.50767 28.291 8.0145V10.4473H27.3146V8.24658C27.3146 8.0225 27.28 7.83844 27.2106 7.6944C27.1413 7.55035 27.0452 7.44365 26.9225 7.37429C26.7998 7.2996 26.6558 7.26225 26.4904 7.26225C26.2876 7.26225 26.1116 7.3076 25.9622 7.3983C25.8182 7.48366 25.7061 7.6037 25.6261 7.75842C25.5514 7.91314 25.514 8.08919 25.514 8.28659V10.4473ZM29.0182 8.46265C29.0182 8.05185 29.1088 7.69173 29.2902 7.38229C29.4716 7.06752 29.7224 6.82211 30.0425 6.64605C30.3626 6.46999 30.7254 6.38196 31.1309 6.38196C31.5417 6.38196 31.9044 6.46999 32.2192 6.64605C32.5393 6.82211 32.7901 7.06752 32.9715 7.38229C33.1529 7.69173 33.2436 8.05185 33.2436 8.46265C33.2436 8.87345 33.1529 9.23624 32.9715 9.55101C32.7901 9.86045 32.5393 10.1032 32.2192 10.2793C31.9044 10.4553 31.5417 10.5433 31.1309 10.5433C30.7254 10.5433 30.3626 10.4553 30.0425 10.2793C29.7224 10.1032 29.4716 9.86045 29.2902 9.55101C29.1088 9.23624 29.0182 8.87345 29.0182 8.46265ZM29.9945 8.46265C29.9945 8.70273 30.0425 8.91347 30.1385 9.09486C30.2399 9.27626 30.3733 9.41764 30.5387 9.519C30.7094 9.62037 30.9068 9.67105 31.1309 9.67105C31.3549 9.67105 31.5523 9.62037 31.7231 9.519C31.8938 9.41764 32.0272 9.27626 32.1232 9.09486C32.2192 8.91347 32.2672 8.70273 32.2672 8.46265C32.2672 8.21724 32.2192 8.0065 32.1232 7.83044C32.0272 7.64905 31.8938 7.50767 31.7231 7.4063C31.5523 7.30493 31.3549 7.25425 31.1309 7.25425C30.9068 7.25425 30.7094 7.30493 30.5387 7.4063C30.3733 7.50767 30.2399 7.64905 30.1385 7.83044C30.0425 8.0065 29.9945 8.21724 29.9945 8.46265ZM33.7854 8.46265C33.7854 8.05185 33.8761 7.69173 34.0575 7.38229C34.2388 7.06752 34.4896 6.82211 34.8097 6.64605C35.1298 6.46999 35.4926 6.38196 35.8981 6.38196C36.3089 6.38196 36.6717 6.46999 36.9864 6.64605C37.3065 6.82211 37.5573 7.06752 37.7387 7.38229C37.9201 7.69173 38.0108 8.05185 38.0108 8.46265C38.0108 8.87345 37.9201 9.23624 37.7387 9.55101C37.5573 9.86045 37.3065 10.1032 36.9864 10.2793C36.6717 10.4553 36.3089 10.5433 35.8981 10.5433C35.4926 10.5433 35.1298 10.4553 34.8097 10.2793C34.4896 10.1032 34.2388 9.86045 34.0575 9.55101C33.8761 9.23624 33.7854 8.87345 33.7854 8.46265ZM34.7617 8.46265C34.7617 8.70273 34.8097 8.91347 34.9057 9.09486C35.0071 9.27626 35.1405 9.41764 35.3059 9.519C35.4766 9.62037 35.674 9.67105 35.8981 9.67105C36.1221 9.67105 36.3195 9.62037 36.4903 9.519C36.661 9.41764 36.7944 9.27626 36.8904 9.09486C36.9864 8.91347 37.0344 8.70273 37.0344 8.46265C37.0344 8.21724 36.9864 8.0065 36.8904 7.83044C36.7944 7.64905 36.661 7.50767 36.4903 7.4063C36.3195 7.30493 36.1221 7.25425 35.8981 7.25425C35.674 7.25425 35.4766 7.30493 35.3059 7.4063C35.1405 7.50767 35.0071 7.64905 34.9057 7.83044C34.8097 8.0065 34.7617 8.21724 34.7617 8.46265ZM38.3534 6.494H40.8503V7.31027H38.3534V6.494ZM40.09 10.4473H39.1137V5.26159H40.09V10.4473ZM41.4652 10.4473V6.494H42.4416V10.4473H41.4652ZM41.9454 5.70173C41.78 5.70173 41.6386 5.64571 41.5212 5.53368C41.4092 5.4163 41.3532 5.27492 41.3532 5.10954C41.3532 4.94415 41.4092 4.80543 41.5212 4.6934C41.6386 4.58136 41.78 4.52534 41.9454 4.52534C42.1108 4.52534 42.2495 4.58136 42.3615 4.6934C42.4789 4.80543 42.5376 4.94415 42.5376 5.10954C42.5376 5.27492 42.4789 5.4163 42.3615 5.53368C42.2495 5.64571 42.1108 5.70173 41.9454 5.70173ZM43.0581 6.494H45.539V7.31027H43.0581V6.494ZM45.547 4.53334V5.36562C45.4936 5.36562 45.4376 5.36562 45.3789 5.36562C45.3256 5.36562 45.2695 5.36562 45.2109 5.36562C44.9654 5.36562 44.8 5.42431 44.7147 5.54168C44.6347 5.65905 44.5946 5.81644 44.5946 6.01384V10.4473H43.6263V6.01384C43.6263 5.65105 43.685 5.36029 43.8024 5.14155C43.9198 4.91747 44.0851 4.75475 44.2985 4.65338C44.512 4.54668 44.76 4.49333 45.0428 4.49333C45.1228 4.49333 45.2055 4.496 45.2909 4.50133C45.3816 4.50667 45.4669 4.51734 45.547 4.53334ZM46.7463 6.494L48.0347 10.1432L47.5066 11.1435L45.714 6.494H46.7463ZM45.818 12.2799V11.4717H46.4022C46.5302 11.4717 46.6423 11.4556 46.7383 11.4236C46.8343 11.397 46.9197 11.3436 46.9944 11.2636C47.0744 11.1836 47.1411 11.0662 47.1944 10.9115L48.835 6.494H49.8433L47.9067 11.3276C47.7626 11.6904 47.5812 11.9545 47.3625 12.1199C47.1438 12.2853 46.8717 12.368 46.5462 12.368C46.4075 12.368 46.2768 12.3599 46.1541 12.3439C46.0367 12.3333 45.9247 12.3119 45.818 12.2799Z" fill="white"/>
</svg>
