<svg width="199" height="53" viewBox="0 0 199 53" fill="none" xmlns="http://www.w3.org/2000/svg">
<g clip-path="url(#clip0_290_168)">
<path d="M81.1853 13.2723C77.1583 13.5009 72.5676 12.8582 68.6063 13.2442C62.7479 13.8136 63.9827 18.6879 62.4583 22.5118C61.8047 24.1531 60.6927 25.2573 59.7364 26.6916C63.0264 29.1395 62.6755 32.6744 63.68 35.9829C64.5749 38.9311 67.4855 40.1325 70.4466 39.7464C71.2077 36.1468 74.6842 32.8664 78.3142 32.064C87.9255 29.9375 95.2141 40.2683 89.8206 48.3389C84.7824 55.8746 72.686 53.871 70.4378 45.1922C65.415 45.4251 60.5391 43.0376 58.7362 38.2582C57.6285 35.3251 58.3589 31.8915 55.3233 29.9677C53.3339 28.706 50.3707 29.3444 48.1159 29.2236C45.2426 39.686 30.3211 39.6968 27.2701 29.2969L21.2493 29.1891C19.1985 36.0519 11.5371 39.3388 5.12146 35.5472C-2.2329 31.2014 -1.51129 20.3141 6.27298 16.8719C12.5109 14.1134 19.3718 17.4736 21.2493 23.8231L27.2657 23.711C30.3957 13.3521 45.1768 13.3219 48.1181 23.7843C50.8839 23.6808 53.9941 24.4809 56.1853 22.3846C58.1813 20.4737 57.747 17.6721 58.5607 15.2306C61.8091 5.48857 73.1883 8.27509 81.1831 7.82001C83.1791 0.881746 91.413 -2.23045 97.6049 1.75954C102.985 5.22544 104.014 12.6253 99.8619 17.4521C94.1284 24.1164 83.4555 21.5262 81.1831 13.2723H81.1853ZM91.0335 5.31603C84.0367 6.13559 84.9075 16.8741 92.7115 15.8108C99.0898 14.9416 98.0194 4.49646 91.0335 5.31603ZM9.87669 21.2803C3.24394 22.2099 4.20025 32.5989 11.5502 31.7664C18.3541 30.9965 17.2135 20.2515 9.87669 21.2803ZM36.8551 21.2803C30.0842 22.2293 31.2686 32.7068 38.5352 31.7729C45.3084 30.9016 44.1876 20.2537 36.8551 21.2803ZM79.6214 37.2338C73.434 38.269 74.4999 48.3216 81.2972 47.7285C88.5879 47.0944 87.4584 35.9203 79.6214 37.2338Z" fill="#222326"/>
<path d="M167.196 22.5208C166.852 22.9802 168.418 23.5021 168.716 23.7178C173.383 27.0888 172.826 33.8718 167.606 36.4017C164.404 37.9524 159.918 37.9545 156.611 36.7014C149.906 34.1608 149.8 25.7452 156.227 22.84L153.726 20.7738C148.872 12.3107 159.738 7.32865 166.841 10.6824C171.809 13.0289 172.642 20.3403 167.198 22.5208H167.196ZM160.557 13.7234C159.157 13.9779 158.131 15.2375 157.984 16.5833C157.402 21.9104 165.003 22.1671 165.441 17.6638C165.737 14.6249 163.445 13.1993 160.557 13.7234ZM160.559 25.1564C158.933 25.4324 157.567 26.8731 157.345 28.4648C156.483 34.6849 165.406 35.0235 166.079 30.1535C166.562 26.6575 163.983 24.5762 160.559 25.1564Z" fill="#222326"/>
<path d="M199 37.1824H193.297V23.9184C193.297 23.7954 192.536 22.2275 192.383 22.014C190.67 19.6157 186.654 19.9241 184.962 22.1951C184.432 22.9069 183.866 24.587 183.866 25.4303V37.1846H178.382V16.0484H183.317C183.811 16.2447 183.703 18.4294 183.978 18.423C186.338 16.3072 188.564 15.3065 191.845 15.6429C195.958 16.0635 199 19.6782 199 23.7049V37.1846V37.1824Z" fill="#222326"/>
<path d="M145.043 37.1824H139.56V25.4281C139.56 25.2663 139.309 23.8278 139.244 23.5819C138.25 19.7386 132.74 19.2382 130.817 22.441C130.707 22.6243 130.128 24.0434 130.128 24.1362V37.1845H124.425V16.0484H129.689L129.909 18.4208C130.168 18.4402 130.33 18.451 130.567 18.3065C130.902 18.1037 131.692 17.0685 132.247 16.7299C137.289 13.6565 145.041 16.9995 145.041 23.0556V37.1824H145.043Z" fill="#222326"/>
</g>
<defs>
<clipPath id="clip0_290_168">
<rect width="199" height="53" fill="white"/>
</clipPath>
</defs>
</svg>
