<svg width="255" height="63" viewBox="0 0 255 63" fill="none" xmlns="http://www.w3.org/2000/svg">
<g clip-path="url(#clip0_290_174)">
<path d="M12.4564 11.1396C12.6761 10.9861 14.2847 7.29782 14.9673 6.3728C20.8797 -1.67687 32.9201 -2.16103 39.4995 5.25884C49.339 3.14112 58.7077 10.8916 58.692 20.9331C58.692 22.2281 57.9074 24.9599 58.1271 25.881C58.3232 26.7194 60.4457 29.4 60.995 30.9115C64.0747 39.3824 59.8376 47.7194 51.8891 51.2896C51.1554 51.6202 49.8922 51.632 49.4292 51.9706C49.2174 52.1241 47.6873 55.6903 47.0046 56.6232C41.1472 64.6768 29.0204 65.1649 22.4725 57.7372C12.9272 60.0281 3.13085 51.8879 3.13477 42.1259C3.13477 40.7719 4.07243 38.6817 3.9155 37.4339C3.8135 36.6191 1.41246 33.3717 0.882823 31.7854C-1.96154 23.2712 2.31481 15.0011 10.3653 11.5962C11.0009 11.3286 12.1347 11.364 12.4564 11.1396ZM21.1739 32.8757V15.7529C21.1739 15.3593 22.1979 14.3437 22.602 14.0367C25.9564 11.5136 31.3391 9.56118 34.9092 7.0892C32.363 3.88114 27.3099 3.55443 23.6495 4.8534C13.0959 8.60467 16.6543 20.8898 16.0698 29.5299C16.2973 30.7462 20.0126 32.1514 21.17 32.8757H21.1739ZM24.7048 17.5243V23.8223L40.2449 15.1625L41.5513 15.3751L53.9449 22.6296C54.8747 22.9091 54.553 21.0708 54.5373 20.4568C54.2784 11.8285 45.3686 6.8609 37.6555 10.2461C33.3439 12.1394 29.1617 15.7569 24.7009 17.5203L24.7048 17.5243ZM11.7581 30.7108V15.5561C8.17616 16.9102 4.84924 20.5591 4.33529 24.4482C2.77776 36.2924 14.2651 38.4416 21.935 43.7241L27.4472 40.3586C26.8862 40.3074 26.3448 40.0594 25.8622 39.7799C22.4764 37.8354 15.6186 34.5014 12.9468 32.2695C12.5859 31.9704 11.8366 31.1004 11.7542 30.7108H11.7581ZM50.206 47.4399C55.777 45.1372 58.3468 40.3389 57.6171 34.2967C56.6362 26.2077 45.6943 23.3932 40.0252 19.272L34.513 22.6375C39.8486 25.259 45.4746 28.2978 50.206 31.8916V47.4399ZM24.7715 35.1745C27.0863 35.7885 29.6638 39.0005 32.0492 38.0834C32.6612 37.8472 36.8709 35.2493 37.067 34.8438V28.1482L31.1508 24.6095L24.7676 27.8215V35.1745H24.7715ZM40.7902 30.1203V47.2431C40.7902 47.5422 39.7819 48.7546 39.3621 48.9593L27.0549 55.9068C30.3426 59.9572 37.1573 59.5518 41.1511 56.6587C48.5896 51.262 45.1176 41.3584 45.8944 33.4661L45.506 32.675L40.7941 30.1203H40.7902ZM37.2593 45.4718V39.1737L21.7192 47.8375L20.4089 47.6249L8.01531 40.3704C7.08549 40.0909 7.40328 41.9291 7.42289 42.5432C7.6936 51.1794 16.5719 56.1469 24.3047 52.7539C28.6163 50.8605 32.7985 47.2431 37.2593 45.4796V45.4718Z" fill="#262626"/>
<path d="M97.9324 48.8728C89.3169 56.7847 71.7721 52.7342 70.2577 39.7209C68.5354 24.9127 73.6357 11.5766 91.0275 15.3397C104.912 18.343 106.493 41.012 97.9324 48.8767V48.8728ZM85.0288 20.382C81.9216 20.756 79.1478 22.5352 77.9826 25.5149C76.7978 28.5459 76.7664 40.1579 78.371 42.9959C81.7137 48.9121 91.8043 48.7547 94.6094 42.5905C96.2572 38.973 96.2729 28.723 94.6173 25.1252C92.9616 21.5275 88.8775 19.9175 85.0327 20.382H85.0288Z" fill="#262626"/>
<path d="M222.241 52.1635C221.052 51.821 219.812 45.6922 219.251 44.3382L204.798 44.3067L202.444 51.9824L195.366 52.1635L208.113 15.9498L215.916 15.5325L228.71 52.1635H222.237H222.241ZM217.337 39.1738L212.04 22.2439L206.744 39.1738H217.337Z" fill="#262626"/>
<path d="M114.547 49.0144V61.2169H107.878V25.0032H114.155V28.5458C119.059 22.4328 129.77 23.3185 132.944 30.7541C134.485 34.3676 134.556 41.256 133.505 45.0073C131.213 53.2065 120.044 55.2298 114.547 49.0144ZM119.546 29.8212C114.3 30.7226 114.018 37.5205 114.583 41.6969C115.54 48.7625 125.125 49.4002 126.839 43.4328C127.318 41.7638 127.314 36.4813 127.067 34.6785C126.541 30.8013 123.175 29.1953 119.546 29.8172V29.8212Z" fill="#262626"/>
<path d="M144.756 40.7482C143.736 48.8451 153.443 50.7385 157.142 44.2673L161.242 46.4598C162.282 47.3769 159.826 49.6324 159.08 50.1953C154.109 53.9269 143.689 53.5293 139.884 48.2035C137.196 44.4444 137 36.442 138.377 32.179C141.736 21.7676 159.433 21.7597 162.164 32.5411C162.725 34.7533 163.361 38.847 162.219 40.7522H144.76L144.756 40.7482ZM156.134 36.4183C156.828 26.3454 143.807 26.5147 144.756 36.4183H156.134Z" fill="#262626"/>
<path d="M191.443 51.7698H184.381V33.8598C184.381 31.3957 180.49 29.8842 178.296 30.1085C176.174 30.325 173.789 32.4624 173.789 34.647V51.7698H167.119V25.0032H173.396V28.5458C178.022 21.8699 190.051 23.4523 191.051 32.2853C191.757 38.5125 190.38 45.5859 191.443 51.7698Z" fill="#262626"/>
<path d="M255 15.5562V20.6733H247.154V46.6527H255V51.7698H232.638C232.861 50.1363 232.049 47.9044 233.226 46.6527H240.484V20.6733H232.638C232.861 19.0398 232.049 16.8079 233.226 15.5562H255Z" fill="#262626"/>
</g>
<defs>
<clipPath id="clip0_290_174">
<rect width="255" height="63" fill="white"/>
</clipPath>
</defs>
</svg>
