<svg width="20" height="20" viewBox="0 0 20 20" fill="none" xmlns="http://www.w3.org/2000/svg">
<path d="M9.99675 1.04169C10.8712 1.04169 11.5599 1.70213 11.9996 2.59328L13.468 5.55432C13.5125 5.64596 13.6181 5.775 13.7767 5.89305C13.9352 6.01098 14.0905 6.07603 14.1926 6.09319L16.8506 6.53846C17.8107 6.6998 18.6155 7.17043 18.8767 7.98994C19.1377 8.80877 18.7553 9.65969 18.0648 10.3514L18.0642 10.3521L15.9992 12.4341C15.9174 12.5166 15.8257 12.672 15.7682 12.8745C15.7112 13.0757 15.7061 13.2589 15.732 13.3773L15.7323 13.3789L16.3231 15.9545C16.5682 17.0264 16.4869 18.0894 15.7309 18.6452C14.9722 19.2028 13.9356 18.9556 12.9937 18.3947L10.5022 16.9075C10.3975 16.845 10.2178 16.7944 10.0009 16.7944C9.78558 16.7944 9.60216 16.8444 9.49066 16.9092L9.48908 16.9101L7.0024 18.3944C6.06171 18.9573 5.02628 19.2 4.26759 18.6419C3.51207 18.086 3.42678 17.025 3.67259 15.9539L4.26325 13.3789L4.26361 13.3773C4.28951 13.2589 4.28444 13.0757 4.22733 12.8745C4.16983 12.672 4.07816 12.5166 3.99631 12.4341L1.92987 10.3505C1.24387 9.65885 0.862673 8.80869 1.12162 7.99106C1.38132 7.17106 2.18452 6.69985 3.14527 6.5384L5.8011 6.09351L5.80194 6.09337C5.89931 6.07648 6.05225 6.01215 6.2104 5.89392C6.36884 5.77547 6.47466 5.64615 6.51926 5.55432L6.52151 5.54975L7.98801 2.5925L7.9886 2.59133C8.4325 1.70092 9.12333 1.04169 9.99675 1.04169Z" fill="#EC671D"/>
</svg>
